<svg width="66" height="67" viewBox="0 0 66 67" fill="none" stroke="white" xmlns="http://www.w3.org/2000/svg">
<path d="M0.499996 59C0.499996 59.2761 0.723854 59.5 0.999996 59.5C1.27614 59.5 1.5 59.2761 1.5 59L0.499996 59ZM0.5 5L0.499996 59L1.5 59L1.5 5L0.5 5Z" fill="black"/>
<path d="M12.5 66C12.5 66.2761 12.7239 66.5 13 66.5C13.2761 66.5 13.5 66.2761 13.5 66L12.5 66ZM12.5 13L12.5 66L13.5 66L13.5 13L12.5 13Z" fill="black"/>
<line x1="65.5" y1="13" x2="65.5" y2="66" stroke="black"/>
<line x1="65" y1="13.5" x2="13" y2="13.5" stroke="black"/>
<line x1="54" y1="5.5" x2="1" y2="5.5" stroke="black"/>
<line x1="12.7226" y1="13.416" x2="0.722658" y2="5.41602" stroke="black"/>
<line x1="65.7226" y1="13.416" x2="53.7227" y2="5.41602" stroke="black"/>
<path d="M13 65.5C12.7239 65.5 12.5 65.7239 12.5 66C12.5 66.2761 12.7239 66.5 13 66.5V65.5ZM66 65.5H13V66.5H66V65.5Z" fill="black"/>
<path d="M1.25193 58.5681C1.01341 58.429 0.70725 58.5095 0.56811 58.7481C0.42897 58.9866 0.509538 59.2927 0.748064 59.4319L1.25193 58.5681ZM13.2519 65.5681L1.25193 58.5681L0.748064 59.4319L12.7481 66.4319L13.2519 65.5681Z" fill="black"/>
<mask id="path-10-inside-1_2_140" fill="white">
<path d="M31 13C31 16.4478 31.8955 19.7544 33.4896 22.1924C35.0837 24.6304 37.2457 26 39.5 26C41.7543 26 43.9163 24.6304 45.5104 22.1924C47.1045 19.7544 48 16.4478 48 13L39.5 13H31Z"/>
</mask>
<path d="M31 13C31 16.4478 31.8955 19.7544 33.4896 22.1924C35.0837 24.6304 37.2457 26 39.5 26C41.7543 26 43.9163 24.6304 45.5104 22.1924C47.1045 19.7544 48 16.4478 48 13L39.5 13H31Z" stroke="black" stroke-width="4" mask="url(#path-10-inside-1_2_140)"/>
</svg>
