<svg width="244" height="87" viewBox="0 0 244 87" fill="none" xmlns="http://www.w3.org/2000/svg">
<line x1="0.96" y1="0.96" x2="0.959999" y2="15.04" stroke="#EA0A0A" stroke-width="1.92" stroke-linecap="round"/>
<line x1="15.04" y1="0.96" x2="0.960001" y2="0.959999" stroke="#EA0A0A" stroke-width="1.92" stroke-linecap="round"/>
<line x1="105.04" y1="0.96" x2="90.96" y2="0.959999" stroke="#EA0A0A" stroke-width="1.92" stroke-linecap="round"/>
<line x1="105.04" y1="15.04" x2="105.04" y2="0.960001" stroke="#EA0A0A" stroke-width="1.92" stroke-linecap="round"/>
<line x1="0.96" y1="86.04" x2="15.04" y2="86.04" stroke="#EA0A0A" stroke-width="1.92" stroke-linecap="round"/>
<line x1="0.96" y1="71.96" x2="0.959997" y2="86.04" stroke="#EA0A0A" stroke-width="1.92" stroke-linecap="round"/>
<rect x="8.5" y="8.5" width="89" height="70" stroke="black"/>
<line x1="105.04" y1="86.04" x2="105.04" y2="71.96" stroke="#EA0A0A" stroke-width="1.92" stroke-linecap="round"/>
<line x1="90.96" y1="86.04" x2="105.04" y2="86.04" stroke="#EA0A0A" stroke-width="1.92" stroke-linecap="round"/>
<path d="M178.5 70C178.5 70.2761 178.724 70.5 179 70.5C179.276 70.5 179.5 70.2761 179.5 70L178.5 70ZM178.5 16L178.5 70L179.5 70L179.5 16L178.5 16Z" fill="black"/>
<path d="M190.5 77C190.5 77.2761 190.724 77.5 191 77.5C191.276 77.5 191.5 77.2761 191.5 77L190.5 77ZM190.5 24L190.5 77L191.5 77L191.5 24L190.5 24Z" fill="black"/>
<line x1="243.5" y1="24" x2="243.5" y2="77" stroke="black"/>
<line x1="243" y1="24.5" x2="191" y2="24.5" stroke="black"/>
<line x1="232" y1="16.5" x2="179" y2="16.5" stroke="black"/>
<line x1="190.723" y1="24.416" x2="178.723" y2="16.416" stroke="black"/>
<line x1="243.723" y1="24.416" x2="231.723" y2="16.416" stroke="black"/>
<path d="M191 76.5C190.724 76.5 190.5 76.7239 190.5 77C190.5 77.2761 190.724 77.5 191 77.5V76.5ZM244 76.5H191V77.5H244V76.5Z" fill="black"/>
<path d="M179.252 69.5681C179.013 69.429 178.707 69.5095 178.568 69.7481C178.429 69.9866 178.51 70.2927 178.748 70.4319L179.252 69.5681ZM191.252 76.5681L179.252 69.5681L178.748 70.4319L190.748 77.4319L191.252 76.5681Z" fill="black"/>
<mask id="path-19-inside-1_2_136" fill="white">
<path d="M209 24C209 27.4478 209.896 30.7544 211.49 33.1924C213.084 35.6304 215.246 37 217.5 37C219.754 37 221.916 35.6304 223.51 33.1924C225.104 30.7544 226 27.4478 226 24L217.5 24H209Z"/>
</mask>
<path d="M209 24C209 27.4478 209.896 30.7544 211.49 33.1924C213.084 35.6304 215.246 37 217.5 37C219.754 37 221.916 35.6304 223.51 33.1924C225.104 30.7544 226 27.4478 226 24L217.5 24H209Z" stroke="black" stroke-width="4" mask="url(#path-19-inside-1_2_136)"/>
<path d="M151 45.5L132.25 64.1195L132.25 26.8805L151 45.5Z" fill="black"/>
<path d="M196.088 11.2498C196.175 11.1303 196.323 11.0282 196.513 10.9564C196.703 10.8845 196.926 10.8462 197.154 10.8462L202.923 10.8462L202.923 4.30769C202.924 3.96099 203.167 3.62861 203.6 3.38345C204.032 3.1383 204.619 3.0004 205.231 3L216.769 3C217.381 3.0004 217.968 3.1383 218.4 3.38345C218.833 3.62861 219.076 3.96099 219.077 4.3077L219.077 10.8462L224.846 10.8462C225.074 10.8462 225.297 10.8845 225.487 10.9564C225.677 11.0282 225.825 11.1304 225.912 11.2498C225.999 11.3693 226.022 11.5008 225.978 11.6276C225.933 11.7544 225.823 11.8709 225.662 11.9624L211.816 19.8086C211.599 19.9311 211.306 20 211 20C210.694 20 210.4 19.9311 210.184 19.8086L196.338 11.9624C196.177 11.8709 196.067 11.7544 196.022 11.6276C195.978 11.5007 196.001 11.3693 196.088 11.2498Z" fill="#FF0000"/>
<path d="M16 15H20.3461V71.5284H16V15ZM23.0061 71.5284H25.4529V15H23.0061V71.5284ZM27.2165 71.5284H29.6585V15H27.2165V71.5284ZM32.8708 71.5284H38.2199V15H32.8708V71.5284ZM42.503 71.5284H45.1775V15H42.503V71.5284ZM49.325 71.5284H60.4107V15H49.325V71.5284ZM78.2117 71.5284H81.8553V15H78.2117V71.5284ZM85.0337 15V71.5284H90V15H85.0337ZM64.8585 71.5284H67.2423V15H64.8585V71.5284ZM70.6582 71.5284H73.042V15H70.6582V71.5284Z" fill="#030104"/>
</svg>
