<svg width="184" height="98" viewBox="0 0 184 98" fill="none" xmlns="http://www.w3.org/2000/svg">
<path d="M91.6039 60.3506V35.4156H93.2013V60.3506H91.6039ZM95.8409 43.6461C95.763 42.8604 95.4286 42.25 94.8377 41.8149C94.2467 41.3798 93.4448 41.1623 92.4318 41.1623C91.7435 41.1623 91.1623 41.2597 90.6883 41.4545C90.2143 41.6428 89.8506 41.9058 89.5974 42.2435C89.3506 42.5811 89.2273 42.9643 89.2273 43.3928C89.2143 43.75 89.289 44.0617 89.4513 44.3279C89.6201 44.5941 89.8506 44.8246 90.1428 45.0195C90.4351 45.2078 90.7727 45.3733 91.1558 45.5162C91.539 45.6526 91.948 45.7695 92.3831 45.8669L94.1753 46.2954C95.0454 46.4902 95.8441 46.75 96.5714 47.0746C97.2987 47.3993 97.9286 47.7987 98.461 48.2727C98.9935 48.7467 99.4058 49.3052 99.698 49.948C99.9967 50.5909 100.149 51.3279 100.156 52.1591C100.149 53.3798 99.8377 54.4383 99.2208 55.3344C98.6104 56.224 97.7273 56.9156 96.5714 57.4091C95.4221 57.8961 94.0357 58.1396 92.4123 58.1396C90.8019 58.1396 89.3993 57.8928 88.2045 57.3993C87.0162 56.9058 86.0877 56.1753 85.4188 55.2078C84.7565 54.2337 84.4091 53.0292 84.3766 51.5941H88.4578C88.5032 52.263 88.6948 52.8214 89.0325 53.2695C89.3766 53.711 89.8344 54.0454 90.4058 54.2727C90.9838 54.4935 91.6364 54.6039 92.3636 54.6039C93.0779 54.6039 93.698 54.5 94.224 54.2922C94.7565 54.0844 95.1688 53.7954 95.461 53.4253C95.7532 53.0552 95.8993 52.6298 95.8993 52.1493C95.8993 51.7013 95.7662 51.3246 95.5 51.0195C95.2403 50.7143 94.8571 50.4545 94.3506 50.2402C93.8506 50.0259 93.237 49.8311 92.5097 49.6558L90.3377 49.1104C88.6558 48.7013 87.3279 48.0617 86.3539 47.1915C85.3799 46.3214 84.8961 45.1493 84.9026 43.6753C84.8961 42.4675 85.2175 41.4123 85.8669 40.5097C86.5227 39.6071 87.4221 38.9026 88.5649 38.3961C89.7078 37.8896 91.0065 37.6363 92.461 37.6363C93.9416 37.6363 95.2338 37.8896 96.3377 38.3961C97.448 38.9026 98.3117 39.6071 98.9286 40.5097C99.5454 41.4123 99.8636 42.4578 99.8831 43.6461H95.8409Z" fill="white"/>
<path d="M45.5714 1H79.8571" stroke="white" stroke-width="1.71429" stroke-linecap="round"/>
<path d="M103.857 1H138.143" stroke="white" stroke-width="1.71429" stroke-linecap="round"/>
<path d="M103.857 97H138.143" stroke="white" stroke-width="1.71429" stroke-linecap="round"/>
<path d="M45.5714 97H79.8571" stroke="white" stroke-width="1.71429" stroke-linecap="round"/>
<path d="M182.714 31.8571L182.714 66.1428" stroke="white" stroke-width="1.71429" stroke-linecap="round"/>
<path d="M1 31.8571L0.999999 66.1428" stroke="white" stroke-width="1.71429" stroke-linecap="round"/>
<path d="M162.143 1H182.714" stroke="white" stroke-width="1.71429" stroke-linecap="round"/>
<path d="M182.714 1L182.714 21.5714" stroke="white" stroke-width="1.71429" stroke-linecap="round"/>
<path d="M1 21.5714L0.999999 0.999984" stroke="white" stroke-width="1.71429" stroke-linecap="round"/>
<path d="M1 1H21.5714" stroke="white" stroke-width="1.71429" stroke-linecap="round"/>
<path d="M21.5714 97L0.999984 97" stroke="white" stroke-width="1.71429" stroke-linecap="round"/>
<path d="M0.999969 97L0.999969 76.4286" stroke="white" stroke-width="1.71429" stroke-linecap="round"/>
<path d="M182.714 76.4286L182.714 97" stroke="white" stroke-width="1.71429" stroke-linecap="round"/>
<path d="M182.714 97L162.143 97" stroke="white" stroke-width="1.71429" stroke-linecap="round"/>
<path d="M123.571 49C123.571 67.5493 110.057 82.4286 93.5714 82.4286C77.0856 82.4286 63.5714 67.5493 63.5714 49C63.5714 30.4507 77.0856 15.5714 93.5714 15.5714C110.057 15.5714 123.571 30.4507 123.571 49Z" stroke="white" stroke-width="1.71429"/>
</svg>
