<svg width="113" height="203" viewBox="0 0 113 203" fill="none" xmlns="http://www.w3.org/2000/svg">
<line x1="9.5" y1="13" x2="9.5" y2="26" stroke="black" stroke-opacity="0.5" stroke-width="3"/>
<line x1="17.5" y1="6.55671e-08" x2="17.5" y2="13" stroke="black" stroke-opacity="0.5" stroke-width="3"/>
<line x1="103.5" y1="13" x2="103.5" y2="188" stroke="black" stroke-opacity="0.5" stroke-width="3"/>
<line x1="111.5" y1="1" x2="111.5" y2="176" stroke="black" stroke-opacity="0.5" stroke-width="3"/>
<line x1="105" y1="189.5" x2="94" y2="189.5" stroke="black" stroke-opacity="0.5" stroke-width="3"/>
<line x1="113" y1="177.5" x2="105" y2="177.5" stroke="black" stroke-opacity="0.5" stroke-width="3"/>
<line x1="79" y1="78.5" x2="23" y2="78.5" stroke="black" stroke-opacity="0.5" stroke-width="3"/>
<line x1="79" y1="65.5" x2="31" y2="65.5" stroke="black" stroke-opacity="0.5" stroke-width="3"/>
<line x1="23" y1="14.5" x2="11" y2="14.5" stroke="black" stroke-opacity="0.5" stroke-width="3"/>
<line x1="110" y1="2.5" x2="98" y2="2.5" stroke="black" stroke-opacity="0.5" stroke-width="3"/>
<line x1="31" y1="1.5" x2="19" y2="1.5" stroke="black" stroke-opacity="0.5" stroke-width="3"/>
<line x1="102" y1="14.5" x2="90" y2="14.5" stroke="black" stroke-opacity="0.5" stroke-width="3"/>
<line x1="88.5" y1="25" x2="88.5" y2="13" stroke="black" stroke-opacity="0.5" stroke-width="3"/>
<line x1="96.5" y1="13" x2="96.5" y2="1" stroke="black" stroke-opacity="0.5" stroke-width="3"/>
<line x1="24.5" y1="77" x2="24.5" y2="13" stroke="black" stroke-opacity="0.5" stroke-width="3"/>
<line x1="29.5" y1="67" x2="29.5" y2="3" stroke="black" stroke-opacity="0.5" stroke-width="3"/>
<line x1="1.5" y1="25" x2="1.49999" y2="200" stroke="black" stroke-width="3"/>
<line x1="95.5" y1="25" x2="95.5" y2="200" stroke="black" stroke-width="3"/>
<line x1="97" y1="201.5" y2="201.5" stroke="black" stroke-width="3"/>
<line x1="82" y1="89.5" x2="15" y2="89.5" stroke="black" stroke-width="3"/>
<line x1="15" y1="26.5" y2="26.5" stroke="black" stroke-width="3"/>
<line x1="97" y1="26.5" x2="82" y2="26.5" stroke="black" stroke-width="3"/>
<line x1="80.5" y1="88" x2="80.5" y2="25" stroke="black" stroke-width="3"/>
<line x1="16.5" y1="89" x2="16.5" y2="25" stroke="black" stroke-width="3"/>
<path d="M42.5354 154.495V153.636C42.5522 150.69 42.8131 148.342 43.3182 146.591C43.8401 144.84 44.5976 143.426 45.5909 142.348C46.5842 141.271 47.7795 140.295 49.1768 139.419C50.2205 138.746 51.1549 138.047 51.9798 137.323C52.8047 136.599 53.4613 135.8 53.9495 134.924C54.4377 134.032 54.6818 133.039 54.6818 131.944C54.6818 130.783 54.404 129.764 53.8485 128.889C53.2929 128.013 52.5438 127.34 51.601 126.869C50.6751 126.397 49.6481 126.162 48.5202 126.162C47.4259 126.162 46.3906 126.406 45.4141 126.894C44.4377 127.365 43.638 128.072 43.0152 129.015C42.3923 129.941 42.0556 131.094 42.0051 132.475H31.702C31.7862 129.108 32.5943 126.33 34.1263 124.141C35.6582 121.936 37.6869 120.295 40.2121 119.217C42.7374 118.123 45.5236 117.576 48.5707 117.576C51.9209 117.576 54.8838 118.131 57.4596 119.242C60.0354 120.337 62.0556 121.928 63.5202 124.015C64.9848 126.103 65.7172 128.62 65.7172 131.566C65.7172 133.535 65.3889 135.286 64.7323 136.818C64.0926 138.333 63.1919 139.68 62.0303 140.859C60.8687 142.02 59.4966 143.072 57.9141 144.015C56.5842 144.806 55.4899 145.631 54.6313 146.49C53.7896 147.348 53.1582 148.342 52.7374 149.47C52.3333 150.598 52.1229 151.987 52.1061 153.636V154.495H42.5354ZM47.5354 170.657C45.8519 170.657 44.4125 170.067 43.2172 168.889C42.0387 167.694 41.4579 166.263 41.4747 164.596C41.4579 162.946 42.0387 161.532 43.2172 160.354C44.4125 159.175 45.8519 158.586 47.5354 158.586C49.1347 158.586 50.5404 159.175 51.7525 160.354C52.9646 161.532 53.5791 162.946 53.596 164.596C53.5791 165.707 53.2845 166.726 52.7121 167.652C52.1566 168.561 51.4242 169.293 50.5151 169.848C49.6061 170.387 48.6128 170.657 47.5354 170.657Z" fill="#D40303"/>
</svg>
