<svg width="43" height="40" viewBox="0 0 43 40" fill="none" xmlns="http://www.w3.org/2000/svg">
<path d="M19.7707 2.97592C20.5418 1.64903 22.4582 1.64903 23.2292 2.97592L41.2539 33.9952C42.0287 35.3285 41.0668 37 39.5247 37H3.4753C1.93322 37 0.971282 35.3285 1.74605 33.9952L19.7707 2.97592Z" fill="white"/>
<path d="M23.1429 13.0519L22.9481 27.3896H20.6883L20.4935 13.0519H23.1429ZM21.8182 33.1558C21.3377 33.1558 20.9253 32.9838 20.5812 32.6396C20.237 32.2955 20.0649 31.8831 20.0649 31.4026C20.0649 30.9221 20.237 30.5097 20.5812 30.1656C20.9253 29.8214 21.3377 29.6494 21.8182 29.6494C22.2987 29.6494 22.711 29.8214 23.0552 30.1656C23.3994 30.5097 23.5714 30.9221 23.5714 31.4026C23.5714 31.7208 23.4903 32.013 23.3279 32.2792C23.1721 32.5455 22.961 32.7597 22.6948 32.9221C22.4351 33.0779 22.1429 33.1558 21.8182 33.1558Z" fill="#C38F1F"/>
</svg>
