<svg width="147" height="91" viewBox="0 0 147 91" fill="none" xmlns="http://www.w3.org/2000/svg">
<rect x="1.08088" y="1.08088" width="144.838" height="88.6323" rx="7.56618" fill="#93CC42" stroke="white" stroke-width="2.16176"/>
<line x1="22.2662" y1="-2.83481e-08" x2="22.2662" y2="90.7941" stroke="white" stroke-width="1.29706"/>
<line x1="147" y1="22.2662" y2="22.2662" stroke="white" stroke-width="1.29706"/>
<path d="M118.578 80.3797V48.9358H120.592V80.3797H118.578ZM123.921 59.3148C123.822 58.3239 123.401 57.5542 122.656 57.0056C121.91 56.457 120.899 56.1826 119.622 56.1826C118.754 56.1826 118.021 56.3055 117.423 56.5511C116.825 56.7886 116.367 57.1202 116.047 57.546C115.736 57.9718 115.581 58.455 115.581 58.9954C115.564 59.4458 115.658 59.8388 115.863 60.1745C116.076 60.5103 116.367 60.801 116.735 61.0466C117.104 61.2841 117.53 61.4929 118.013 61.673C118.496 61.845 119.012 61.9924 119.56 62.1152L121.82 62.6557C122.918 62.9013 123.925 63.2289 124.842 63.6383C125.759 64.0477 126.553 64.5513 127.225 65.1491C127.896 65.7468 128.416 66.451 128.785 67.2617C129.161 68.0724 129.354 69.0018 129.362 70.0499C129.354 71.5893 128.961 72.924 128.183 74.0541C127.413 75.1759 126.299 76.048 124.842 76.6703C123.393 77.2844 121.644 77.5915 119.597 77.5915C117.566 77.5915 115.798 77.2803 114.291 76.658C112.793 76.0357 111.622 75.1145 110.778 73.8944C109.943 72.6661 109.505 71.1471 109.464 69.3375H114.61C114.668 70.1809 114.909 70.8851 115.335 71.4501C115.769 72.0069 116.346 72.4286 117.067 72.7152C117.796 72.9936 118.619 73.1329 119.536 73.1329C120.436 73.1329 121.218 73.0018 121.882 72.7398C122.553 72.4778 123.073 72.1134 123.442 71.6466C123.81 71.1799 123.994 70.6435 123.994 70.0376C123.994 69.4726 123.827 68.9977 123.491 68.6128C123.163 68.2279 122.68 67.9004 122.041 67.6302C121.411 67.36 120.637 67.1143 119.72 66.8932L116.981 66.2054C114.86 65.6895 113.186 64.8829 111.957 63.7857C110.729 62.6884 110.119 61.2104 110.127 59.3516C110.119 57.8285 110.524 56.4979 111.343 55.3597C112.17 54.2215 113.304 53.3331 114.745 52.6943C116.187 52.0556 117.824 51.7363 119.659 51.7363C121.526 51.7363 123.155 52.0556 124.547 52.6943C125.947 53.3331 127.036 54.2215 127.814 55.3597C128.592 56.4979 128.993 57.8163 129.018 59.3148H123.921Z" fill="white"/>
<path d="M26.3534 18.5749C26.6818 19.1438 26.6517 19.8904 26.2673 20.6678C25.8841 21.443 25.1615 22.214 24.1811 22.7801C23.2007 23.3461 22.1716 23.5863 21.3087 23.5307C20.4433 23.4749 19.7816 23.1276 19.4532 22.5588C19.1247 21.9899 19.1549 21.2433 19.5392 20.4658C19.9225 19.6907 20.6451 18.9197 21.6255 18.3536C22.6059 17.7876 23.6349 17.5473 24.4979 17.603C25.3633 17.6588 26.025 18.006 26.3534 18.5749Z" stroke="white" stroke-width="0.601771"/>
<path d="M17.5606 18.5749C17.2322 19.1438 17.2623 19.8904 17.6467 20.6678C18.0299 21.443 18.7525 22.214 19.7329 22.7801C20.7133 23.3461 21.7424 23.5863 22.6053 23.5307C23.4707 23.4749 24.1324 23.1276 24.4608 22.5588C24.7893 21.9899 24.7592 21.2433 24.3748 20.4658C23.9915 19.6907 23.2689 18.9197 22.2885 18.3536C21.3081 17.7876 20.2791 17.5473 19.4162 17.603C18.5507 17.6588 17.8891 18.006 17.5606 18.5749Z" stroke="white" stroke-width="0.601771"/>
<line x1="21.9234" y1="21.312" x2="30.5704" y2="29.959" stroke="white" stroke-width="0.864706"/>
<line x1="21.9234" y1="21.9234" x2="13.2763" y2="30.5705" stroke="white" stroke-width="0.864706"/>
</svg>
