<svg width="73" height="84" viewBox="0 0 73 84" fill="none" xmlns="http://www.w3.org/2000/svg">
<path fill-rule="evenodd" clip-rule="evenodd" d="M24.4715 14.8235C28.2426 14.4753 31.1725 11.2264 31.1725 7.42628C31.1725 3.33606 27.8364 0 23.7462 0C19.656 0 16.3201 3.33606 16.3201 7.42628C16.3201 8.67364 16.6681 9.94998 17.2483 11.0233L19.8944 48.2568L47.1467 48.2642L58.3245 74.4543L73 68.699L70.7275 63.2876L62.5145 66.2523L51.6993 41.2836L26.3606 41.4539L26.0127 36.7386L44.3559 36.7459V29.769L25.313 29.7616L24.4715 14.8235Z" fill="white"/>
<path fill-rule="evenodd" clip-rule="evenodd" d="M51.8801 68.2214C47.2805 77.3139 37.6532 83.3041 27.3842 83.3041C12.3015 83.3041 0 71.0026 0 55.9199C0 45.3299 6.41822 35.4888 15.9955 31.1263L16.6152 39.2142C10.9506 42.7837 7.45859 49.2243 7.45859 55.9754C7.45859 66.9168 16.3824 75.8405 27.3237 75.8405C37.3338 75.8405 45.8697 68.1584 47.0337 58.3034L51.8801 68.2214Z" fill="white"/>
</svg>
