<svg width="94" height="62" viewBox="0 0 94 62" fill="none" xmlns="http://www.w3.org/2000/svg">
<rect x="23.8439" y="0.917073" width="69.239" height="39.4341" rx="3.66829" fill="#93CC42" stroke="white" stroke-width="1.83415"/>
<rect x="77.9512" y="16.0488" width="9.17073" height="6.87805" rx="1.14634" fill="white"/>
<rect x="0.917073" y="7.79512" width="69.239" height="39.4341" rx="3.66829" fill="#93CC42" stroke="white" stroke-width="1.83415"/>
<rect y="13.7561" width="71.0732" height="9.17073" rx="1.14634" fill="white"/>
<circle cx="65.3415" cy="44.7073" r="16.0488" fill="#93CC42" stroke="white" stroke-width="2.29268"/>
<path d="M65.1721 54.0577V37.3836H66.2403V54.0577H65.1721ZM68.0054 42.8873C67.9533 42.3619 67.7297 41.9538 67.3345 41.6628C66.9394 41.3719 66.4031 41.2265 65.7257 41.2265C65.2655 41.2265 64.8768 41.2916 64.5599 41.4219C64.2429 41.5478 63.9997 41.7236 63.8304 41.9494C63.6654 42.1752 63.5829 42.4314 63.5829 42.718C63.5742 42.9568 63.6241 43.1652 63.7327 43.3433C63.8456 43.5213 63.9997 43.6755 64.1951 43.8057C64.3905 43.9316 64.6163 44.0424 64.8725 44.1379C65.1287 44.2291 65.4022 44.3072 65.6932 44.3724L66.8916 44.659C67.4735 44.7892 68.0076 44.9629 68.4939 45.18C68.9802 45.3971 69.4014 45.6642 69.7575 45.9812C70.1135 46.2981 70.3893 46.6716 70.5847 47.1015C70.7844 47.5313 70.8864 48.0242 70.8908 48.58C70.8864 49.3963 70.678 50.1041 70.2655 50.7033C69.8573 51.2982 69.2668 51.7606 68.4939 52.0906C67.7253 52.4163 66.7983 52.5791 65.7127 52.5791C64.6358 52.5791 63.6979 52.4141 62.899 52.0841C62.1043 51.7541 61.4834 51.2656 61.0362 50.6186C60.5933 49.9673 60.3609 49.1618 60.3392 48.2022H63.0683C63.0987 48.6495 63.2268 49.0229 63.4526 49.3225C63.6827 49.6178 63.9889 49.8414 64.371 49.9934C64.7574 50.141 65.1938 50.2148 65.6801 50.2148C66.1578 50.2148 66.5725 50.1453 66.9242 50.0064C67.2802 49.8674 67.556 49.6742 67.7514 49.4267C67.9468 49.1792 68.0445 48.8948 68.0445 48.5735C68.0445 48.2739 67.9555 48.022 67.7774 47.8179C67.6037 47.6138 67.3475 47.4401 67.0089 47.2969C66.6745 47.1536 66.2642 47.0233 65.7778 46.9061L64.3254 46.5413C63.2007 46.2678 62.3128 45.84 61.6614 45.2582C61.0101 44.6763 60.6866 43.8926 60.6909 42.9069C60.6866 42.0992 60.9015 41.3936 61.3358 40.7901C61.7743 40.1865 62.3757 39.7154 63.14 39.3767C63.9042 39.038 64.7726 38.8686 65.7453 38.8686C66.7353 38.8686 67.5994 39.038 68.3376 39.3767C69.0801 39.7154 69.6576 40.1865 70.0701 40.7901C70.4826 41.3936 70.6954 42.0927 70.7084 42.8873H68.0054Z" fill="white"/>
</svg>
