<svg width="416" height="352" viewBox="0 0 416 352" fill="none" xmlns="http://www.w3.org/2000/svg">
<path d="M320 48H400M16 48H256M320 304H400M16 304H256M160 176H400M16 176H96" stroke="white" stroke-width="32" stroke-linecap="round" stroke-linejoin="round"/>
<path d="M288 80C305.673 80 320 65.6731 320 48C320 30.3269 305.673 16 288 16C270.327 16 256 30.3269 256 48C256 65.6731 270.327 80 288 80Z" stroke="white" stroke-width="32" stroke-linecap="round" stroke-linejoin="round"/>
<path d="M128 208C145.673 208 160 193.673 160 176C160 158.327 145.673 144 128 144C110.327 144 96 158.327 96 176C96 193.673 110.327 208 128 208Z" stroke="white" stroke-width="32" stroke-linecap="round" stroke-linejoin="round"/>
<path d="M288 336C305.673 336 320 321.673 320 304C320 286.327 305.673 272 288 272C270.327 272 256 286.327 256 304C256 321.673 270.327 336 288 336Z" stroke="white" stroke-width="32" stroke-linecap="round" stroke-linejoin="round"/>
</svg>
