<svg width="46" height="26" viewBox="0 0 46 26" fill="none" xmlns="http://www.w3.org/2000/svg">
<path d="M0.134674 12.6173C0.268579 12.4346 0.495334 12.2784 0.786265 12.1686C1.0772 12.0587 1.41924 12 1.76914 12L10.6153 12L10.6153 2C10.6164 1.46976 10.9895 0.961398 11.6529 0.586456C12.3163 0.211514 13.2157 0.000604991 14.1538 -1.39204e-06L31.8462 -6.18684e-07C32.7843 0.000605846 33.6837 0.211515 34.347 0.586457C35.0104 0.961399 35.3835 1.46976 35.3846 2L35.3846 12L44.2308 12C44.5807 12 44.9228 12.0587 45.2137 12.1686C45.5046 12.2785 45.7314 12.4347 45.8653 12.6174C45.9992 12.8001 46.0343 13.0012 45.966 13.1951C45.8978 13.3891 45.7293 13.5673 45.4819 13.7072L24.2511 25.7072C23.9192 25.8947 23.4692 26 23 26C22.5308 26 22.0807 25.8947 21.7488 25.7072L0.518022 13.7072C0.270651 13.5673 0.102203 13.3891 0.0339703 13.1951C-0.0342626 13.0011 0.000781004 12.8001 0.134674 12.6173Z" fill="#FF0000"/>
</svg>
