<svg width="126" height="126" viewBox="0 0 126 126" fill="none" xmlns="http://www.w3.org/2000/svg">
<path d="M52.2497 5.25C42.9046 5.25 33.7694 8.02115 25.9992 13.213C18.229 18.4049 12.1729 25.7843 8.59669 34.418C5.02047 43.0518 4.08477 52.5521 5.90791 61.7177C7.73105 70.8832 12.2312 79.3023 18.8391 85.9103C25.4471 92.5183 33.8662 97.0184 43.0318 98.8416C52.1973 100.665 61.6977 99.729 70.3314 96.1528C78.9652 92.5766 86.3446 86.5204 91.5365 78.7503C96.7283 70.9801 99.4995 61.8448 99.4995 52.4997C99.4987 39.9686 94.5203 27.9509 85.6595 19.09C76.7986 10.2291 64.7809 5.2508 52.2497 5.25Z" stroke="white" stroke-width="9.625" stroke-miterlimit="10"/>
<path d="M87.5013 87.7513L120.5 120.75" stroke="white" stroke-width="9.625" stroke-miterlimit="10" stroke-linecap="round"/>
</svg>
