<svg width="68" height="67" viewBox="0 0 68 67" fill="none" xmlns="http://www.w3.org/2000/svg">
<path d="M0.999996 59C0.999996 59.5523 1.44771 60 2 60C2.55228 60 3 59.5523 3 59L0.999996 59ZM1 5L0.999996 59L3 59L3 5L1 5Z" fill="white"/>
<path d="M13 66C13 66.5523 13.4477 67 14 67C14.5523 67 15 66.5523 15 66L13 66ZM13 13L13 66L15 66L15 13L13 13Z" fill="white"/>
<line x1="67" y1="13" x2="67" y2="66" stroke="white" stroke-width="2"/>
<line x1="66" y1="14" x2="14" y2="14" stroke="white" stroke-width="2"/>
<line x1="55" y1="6" x2="2" y2="6" stroke="white" stroke-width="2"/>
<line x1="13.4453" y1="13.8321" x2="1.44531" y2="5.83205" stroke="white" stroke-width="2"/>
<line x1="66.4453" y1="13.8321" x2="54.4453" y2="5.83205" stroke="white" stroke-width="2"/>
<path d="M14 65C13.4477 65 13 65.4477 13 66C13 66.5523 13.4477 67 14 67V65ZM67 65H14V67H67V65Z" fill="white"/>
<path d="M2.50387 58.1362C2.02682 57.8579 1.4145 58.0191 1.13622 58.4961C0.85794 58.9732 1.01908 59.5855 1.49613 59.8638L2.50387 58.1362ZM14.5039 65.1362L2.50387 58.1362L1.49613 59.8638L13.4961 66.8638L14.5039 65.1362Z" fill="white"/>
<mask id="path-10-inside-1_15_182" fill="white">
<path d="M32 13C32 16.4478 32.8955 19.7544 34.4896 22.1924C36.0837 24.6304 38.2457 26 40.5 26C42.7543 26 44.9163 24.6304 46.5104 22.1924C48.1045 19.7544 49 16.4478 49 13L40.5 13H32Z"/>
</mask>
<path d="M32 13C32 16.4478 32.8955 19.7544 34.4896 22.1924C36.0837 24.6304 38.2457 26 40.5 26C42.7543 26 44.9163 24.6304 46.5104 22.1924C48.1045 19.7544 49 16.4478 49 13L40.5 13H32Z" stroke="white" stroke-width="4" mask="url(#path-10-inside-1_15_182)"/>
</svg>
